<?xml version="1.0" standalone="no"?>
<!DOCTYPE svg PUBLIC "-//W3C//DTD SVG 20010904//EN"
 "http://www.w3.org/TR/2001/REC-SVG-20010904/DTD/svg10.dtd">
<svg version="1.0" xmlns="http://www.w3.org/2000/svg"
 width="647.000000pt" height="250.000000pt" viewBox="0 0 647.000000 250.000000"
 preserveAspectRatio="xMidYMid meet">
<metadata>
Created by potrace 1.15, written by Peter Selinger 2001-2017
</metadata>
<g transform="translate(0.000000,250.000000) scale(0.100000,-0.100000)"
fill="#000000" stroke="none">
<path d="M937 2204 c-398 -88 -707 -384 -804 -770 -27 -109 -24 -363 6 -474
46 -171 127 -314 254 -447 160 -167 369 -276 599 -313 111 -18 331 -9 435 19
304 79 550 276 683 546 86 173 121 361 101 539 -48 423 -350 773 -766 886
-107 30 -403 38 -508 14z m-209 -485 c25 -9 73 -67 228 -275 108 -145 199
-264 203 -264 4 0 95 118 202 262 205 276 224 294 288 282 18 -4 45 -22 61
-41 l31 -34 -3 -470 -3 -471 -33 -29 c-45 -40 -99 -40 -144 0 l-33 29 -3 297
-3 296 -145 -195 c-129 -173 -150 -197 -184 -207 -69 -21 -97 2 -250 210
l-135 184 -5 -284 c-4 -202 -9 -290 -18 -306 -19 -34 -53 -53 -95 -53 -31 0
-46 7 -73 34 l-34 34 0 461 c0 511 0 509 63 536 39 17 46 18 85 4z"/>
<path d="M4116 1978 c-8 -13 -38 -109 -67 -214 l-53 -192 -66 -4 c-123 -9
-224 -79 -286 -200 -25 -47 -28 -64 -29 -148 0 -88 3 -100 33 -162 30 -61 74
-111 130 -148 l23 -15 -96 -395 c-53 -217 -93 -405 -90 -417 8 -36 53 -31 69
7 7 17 61 196 121 399 l110 369 65 4 c85 6 147 35 214 98 76 72 109 149 110
255 1 70 -3 89 -30 145 -34 70 -107 151 -156 171 -16 6 -27 17 -25 23 2 6 23
98 47 204 35 158 41 197 32 217 -14 31 -37 32 -56 3z m-285 -642 c80 -35 154
-49 254 -50 50 -1 93 -5 97 -11 12 -16 9 -93 -4 -139 -18 -59 -99 -138 -160
-155 -167 -47 -326 113 -287 287 9 41 33 92 43 92 2 0 28 -11 57 -24z"/>
<path d="M5797 1556 c-65 -24 -113 -62 -136 -108 -36 -75 -22 -138 43 -195 35
-32 78 -48 239 -88 122 -31 162 -94 97 -155 -29 -27 -95 -50 -144 -50 -38 0
-115 28 -169 62 -52 33 -91 33 -102 -2 -11 -34 4 -58 55 -89 81 -50 165 -74
240 -69 164 12 286 131 252 247 -25 83 -89 125 -251 165 -132 33 -165 51 -169
95 -4 39 11 59 63 82 64 29 123 25 199 -16 92 -49 126 -44 126 17 0 22 -9 34
-42 55 -93 59 -216 79 -301 49z"/>
<path d="M2501 1536 c-16 -19 -16 -643 0 -663 18 -21 66 -16 83 9 12 17 16 50
16 145 l0 123 128 0 c112 0 131 2 145 18 22 24 21 55 -1 75 -15 14 -41 17
-145 17 l-127 0 0 90 0 90 143 0 c156 0 187 9 187 55 0 51 -15 55 -224 55
-155 0 -196 -3 -205 -14z"/>
<path d="M3116 1528 c-24 -33 -24 -613 0 -646 15 -21 20 -22 208 -22 174 0
195 2 209 18 23 26 21 58 -5 76 -18 13 -52 16 -165 16 l-143 0 0 268 c0 296
-3 312 -60 312 -18 0 -34 -8 -44 -22z"/>
<path d="M4668 1533 c-22 -26 -238 -594 -238 -625 0 -45 62 -65 92 -30 9 9 26
45 38 80 l23 62 126 0 126 0 24 -62 c13 -35 31 -71 39 -80 30 -35 92 -12 92
33 0 23 -214 583 -236 617 -18 27 -64 30 -86 5z m79 -286 c18 -45 35 -90 39
-99 5 -16 -2 -18 -75 -18 -45 0 -81 2 -81 5 0 13 73 195 79 195 3 0 20 -37 38
-83z"/>
<path d="M4986 1528 c-21 -30 -20 -44 4 -68 17 -17 33 -20 110 -20 l90 0 0
-273 c0 -253 1 -275 18 -290 23 -21 56 -22 76 -1 14 13 16 54 16 290 l0 274
88 0 c98 0 132 14 132 55 0 53 -11 55 -275 55 -241 0 -244 0 -259 -22z"/>
</g>
</svg>
